<?xml version="1.0" standalone="no"?>
<!DOCTYPE svg PUBLIC "-//W3C//DTD SVG 20010904//EN"
 "http://www.w3.org/TR/2001/REC-SVG-20010904/DTD/svg10.dtd">
<svg version="1.0" xmlns="http://www.w3.org/2000/svg"
 width="387.000000pt" height="65.000000pt" viewBox="0 0 387.000000 65.000000"
 preserveAspectRatio="xMidYMid meet">

<g transform="translate(0.000000,65.000000) scale(0.100000,-0.100000)"
fill="#000000" stroke="none">
<path d="M1435 636 c-91 -41 -131 -155 -86 -244 28 -55 44 -65 184 -117 147
-55 177 -80 177 -147 0 -35 -6 -47 -41 -80 -23 -22 -39 -41 -37 -43 7 -7 83
32 102 53 10 12 25 44 32 72 11 42 11 58 -1 98 -21 68 -57 98 -170 138 -180
63 -200 79 -200 156 0 43 4 53 33 79 31 28 36 29 128 29 99 0 133 -11 155 -52
9 -16 5 -21 -26 -34 -20 -8 -41 -25 -47 -39 -33 -73 59 -136 116 -79 45 44 -3
171 -77 205 -51 23 -195 26 -242 5z"/>
<path d="M2235 636 c-95 -43 -133 -151 -86 -244 27 -53 58 -76 136 -101 85
-28 175 -68 197 -88 43 -39 31 -124 -26 -168 -42 -33 -28 -40 25 -12 102 54
121 207 36 285 -14 13 -75 41 -136 63 -133 46 -143 51 -170 85 -34 43 -28 99
13 140 34 34 34 34 128 34 75 0 99 -4 126 -20 40 -25 42 -52 2 -67 -56 -21
-65 -96 -15 -129 20 -13 30 -14 59 -4 38 12 46 25 46 77 0 54 -41 117 -93 142
-52 25 -193 29 -242 7z"/>
<path d="M3393 639 c-17 -6 -17 -7 2 -15 11 -4 23 -12 27 -18 4 -6 8 -133 8
-283 0 -267 0 -273 -22 -293 l-22 -20 94 0 94 0 -22 20 c-20 19 -22 30 -22
138 0 64 4 122 8 128 4 6 30 15 57 20 l50 9 -45 3 c-24 2 -50 8 -57 14 -9 7
-13 47 -13 139 0 111 2 129 17 138 10 5 16 12 13 14 -9 8 -148 13 -167 6z"/>
<path d="M7 633 c-10 -9 -9 -71 1 -77 5 -3 15 6 23 20 7 14 26 32 41 40 15 8
28 17 28 19 0 8 -86 6 -93 -2z"/>
<path d="M190 633 c0 -5 0 -138 0 -297 1 -257 -1 -291 -16 -307 -17 -18 -15
-19 60 -19 74 0 77 1 71 21 -4 11 -7 147 -7 301 0 260 1 280 19 293 16 13 10
14 -54 15 -40 0 -73 -3 -73 -7z"/>
<path d="M394 627 c49 -32 66 -51 72 -82 9 -48 24 -33 24 24 0 59 -12 71 -69
70 -40 0 -43 -2 -27 -12z"/>
<path d="M577 634 c-3 -3 3 -20 13 -37 10 -18 33 -70 50 -117 34 -89 128 -333
158 -409 10 -25 23 -46 29 -48 9 -3 84 171 99 234 4 13 11 22 17 20 5 -1 32
-60 59 -130 50 -127 70 -152 82 -101 19 74 210 551 227 566 27 23 24 28 -15
28 -30 0 -33 -2 -28 -25 3 -16 -18 -84 -55 -182 -33 -87 -68 -179 -77 -205
-10 -27 -21 -48 -26 -48 -5 0 -16 21 -26 48 -9 26 -29 77 -44 113 -36 85 -44
123 -31 146 6 10 22 44 35 76 19 43 30 57 45 57 12 0 21 5 21 10 0 6 -24 10
-52 10 -46 -1 -51 -2 -35 -14 22 -17 21 -29 -7 -95 -26 -59 -25 -59 -55 19
-19 50 -19 55 -4 72 15 17 12 18 -80 18 -58 0 -97 -4 -97 -10 0 -5 6 -10 14
-10 22 0 38 -27 79 -134 65 -169 64 -164 35 -237 -14 -35 -30 -64 -34 -64 -12
0 -164 403 -164 433 0 20 -4 22 -63 22 -35 0 -66 -3 -70 -6z"/>
<path d="M2596 631 c-3 -5 1 -14 8 -20 8 -7 31 -56 51 -109 21 -53 52 -135 70
-182 54 -140 102 -264 109 -283 12 -36 29 -10 75 111 26 67 50 124 53 128 9 8
28 -32 73 -154 37 -101 57 -124 70 -79 4 12 15 45 26 72 11 28 57 149 104 269
46 121 91 224 100 228 25 15 17 28 -16 28 -27 0 -31 -3 -26 -22 3 -11 -1 -37
-9 -57 -8 -20 -38 -97 -65 -171 -28 -74 -56 -151 -63 -170 -8 -19 -18 -36 -23
-37 -11 -4 -93 207 -101 257 -2 19 -8 38 -13 41 -5 3 -20 33 -33 67 -22 57
-23 63 -8 71 30 17 6 22 -89 19 -82 -3 -91 -5 -68 -15 18 -8 33 -27 45 -60 9
-26 32 -86 51 -132 18 -47 33 -97 33 -113 0 -37 -48 -144 -59 -132 -19 20
-161 422 -155 437 5 15 -3 17 -64 17 -39 0 -73 -4 -76 -9z"/>
<path d="M3040 630 c0 -5 5 -10 10 -10 16 0 11 -41 -10 -87 -10 -24 -16 -43
-12 -43 4 0 19 27 34 60 18 42 34 63 52 70 39 14 32 20 -24 20 -27 0 -50 -4
-50 -10z"/>
<path d="M3618 633 c6 -2 18 -2 25 0 6 3 1 5 -13 5 -14 0 -19 -2 -12 -5z"/>
<path d="M3700 631 c0 -5 9 -11 20 -14 36 -9 53 -71 47 -167 -5 -72 -10 -87
-29 -102 -13 -10 -32 -18 -43 -18 -15 0 -17 -2 -6 -9 16 -10 88 5 119 25 39
26 62 74 62 133 0 67 -27 114 -81 141 -39 21 -89 27 -89 11z"/>
<path d="M0 501 c0 -25 6 -27 13 -6 4 8 2 17 -3 20 -6 4 -10 -3 -10 -14z"/>
<path d="M1330 153 c0 -12 5 -25 10 -28 13 -8 13 15 0 35 -8 12 -10 11 -10 -7z"/>
<path d="M2130 153 c0 -12 5 -25 10 -28 13 -8 13 15 0 35 -8 12 -10 11 -10 -7z"/>
<path d="M1360 83 c0 -5 11 -20 25 -33 14 -13 25 -19 25 -13 0 5 -11 20 -25
33 -14 13 -25 19 -25 13z"/>
<path d="M2160 84 c0 -12 11 -26 34 -44 18 -14 19 -14 8 6 -13 24 -42 51 -42
38z"/>
<path d="M1460 10 c0 -5 16 -10 36 -10 21 0 33 4 29 10 -3 6 -19 10 -36 10
-16 0 -29 -4 -29 -10z"/>
<path d="M2260 10 c0 -5 16 -10 36 -10 21 0 33 4 29 10 -3 6 -19 10 -36 10
-16 0 -29 -4 -29 -10z"/>
</g>
</svg>
